<mxfile host="app.diagrams.net" modified="2023-10-18T06:56:27.928Z" agent="Mozilla/5.0 (X11; Ubuntu; Linux x86_64; rv:109.0) Gecko/20100101 Firefox/118.0" etag="C0jOSh4J08GhD_iRyBFM" version="22.0.4" type="google">
  <diagram name="PÃ gina-1" id="rQd0lZIJdD0Q2j8GUnBG">
    <mxGraphModel grid="1" page="1" gridSize="10" guides="1" tooltips="1" connect="1" arrows="1" fold="1" pageScale="1" pageWidth="827" pageHeight="1169" math="0" shadow="0">
      <root>
        <mxCell id="0" />
        <mxCell id="1" parent="0" />
        <mxCell id="GtskYoYn0J118oQG4hOn-1" value="Vehicle" style="rounded=0;whiteSpace=wrap;html=1;" vertex="1" parent="1">
          <mxGeometry x="1180" y="920" width="120" height="60" as="geometry" />
        </mxCell>
        <mxCell id="GtskYoYn0J118oQG4hOn-2" value="VehicleDocument" style="rounded=0;whiteSpace=wrap;html=1;" vertex="1" parent="1">
          <mxGeometry x="1947" y="1130" width="120" height="60" as="geometry" />
        </mxCell>
        <mxCell id="GtskYoYn0J118oQG4hOn-3" value="Order" style="rounded=0;whiteSpace=wrap;html=1;" vertex="1" parent="1">
          <mxGeometry x="1947" y="750" width="120" height="60" as="geometry" />
        </mxCell>
        <mxCell id="GtskYoYn0J118oQG4hOn-4" value="" style="rhombus;whiteSpace=wrap;html=1;" vertex="1" parent="1">
          <mxGeometry x="1707" y="1090" width="50" height="50" as="geometry" />
        </mxCell>
        <mxCell id="GtskYoYn0J118oQG4hOn-5" value="" style="rhombus;whiteSpace=wrap;html=1;" vertex="1" parent="1">
          <mxGeometry x="1707" y="800" width="50" height="50" as="geometry" />
        </mxCell>
        <mxCell id="GtskYoYn0J118oQG4hOn-6" value="(N,1)" style="text;html=1;strokeColor=none;fillColor=none;align=center;verticalAlign=middle;whiteSpace=wrap;rounded=0;" vertex="1" parent="1">
          <mxGeometry x="1892" y="1120" width="60" height="30" as="geometry" />
        </mxCell>
        <mxCell id="GtskYoYn0J118oQG4hOn-7" value="Model" style="rounded=0;whiteSpace=wrap;html=1;" vertex="1" parent="1">
          <mxGeometry x="1181" y="1420" width="120" height="60" as="geometry" />
        </mxCell>
        <mxCell id="GtskYoYn0J118oQG4hOn-8" value="Brand" style="rounded=0;whiteSpace=wrap;html=1;" vertex="1" parent="1">
          <mxGeometry x="1620" y="1420" width="120" height="60" as="geometry" />
        </mxCell>
        <mxCell id="GtskYoYn0J118oQG4hOn-9" value="" style="rhombus;whiteSpace=wrap;html=1;" vertex="1" parent="1">
          <mxGeometry x="1216" y="1160" width="50" height="50" as="geometry" />
        </mxCell>
        <mxCell id="GtskYoYn0J118oQG4hOn-10" value="" style="rhombus;whiteSpace=wrap;html=1;" vertex="1" parent="1">
          <mxGeometry x="1430" y="1425" width="50" height="50" as="geometry" />
        </mxCell>
        <mxCell id="GtskYoYn0J118oQG4hOn-11" value="" style="endArrow=none;html=1;rounded=0;entryX=0.5;entryY=1;entryDx=0;entryDy=0;exitX=0.5;exitY=0;exitDx=0;exitDy=0;" edge="1" parent="1" source="GtskYoYn0J118oQG4hOn-9" target="GtskYoYn0J118oQG4hOn-1">
          <mxGeometry width="50" height="50" relative="1" as="geometry">
            <mxPoint x="1270" y="1160" as="sourcePoint" />
            <mxPoint x="1320" y="1110" as="targetPoint" />
          </mxGeometry>
        </mxCell>
        <mxCell id="GtskYoYn0J118oQG4hOn-12" value="" style="endArrow=none;html=1;rounded=0;entryX=0.5;entryY=0;entryDx=0;entryDy=0;exitX=0.5;exitY=1;exitDx=0;exitDy=0;" edge="1" parent="1" source="GtskYoYn0J118oQG4hOn-9" target="GtskYoYn0J118oQG4hOn-7">
          <mxGeometry width="50" height="50" relative="1" as="geometry">
            <mxPoint x="1270" y="1160" as="sourcePoint" />
            <mxPoint x="1320" y="1110" as="targetPoint" />
          </mxGeometry>
        </mxCell>
        <mxCell id="GtskYoYn0J118oQG4hOn-13" value="" style="endArrow=none;html=1;rounded=0;entryX=0;entryY=0.5;entryDx=0;entryDy=0;exitX=1;exitY=0.5;exitDx=0;exitDy=0;" edge="1" parent="1" source="GtskYoYn0J118oQG4hOn-10" target="GtskYoYn0J118oQG4hOn-8">
          <mxGeometry width="50" height="50" relative="1" as="geometry">
            <mxPoint x="1270" y="1160" as="sourcePoint" />
            <mxPoint x="1320" y="1110" as="targetPoint" />
          </mxGeometry>
        </mxCell>
        <mxCell id="GtskYoYn0J118oQG4hOn-15" value="" style="endArrow=none;html=1;rounded=0;entryX=0;entryY=0.5;entryDx=0;entryDy=0;exitX=1;exitY=0.5;exitDx=0;exitDy=0;" edge="1" parent="1" source="GtskYoYn0J118oQG4hOn-7" target="GtskYoYn0J118oQG4hOn-10">
          <mxGeometry width="50" height="50" relative="1" as="geometry">
            <mxPoint x="1270" y="1160" as="sourcePoint" />
            <mxPoint x="1320" y="1110" as="targetPoint" />
          </mxGeometry>
        </mxCell>
        <mxCell id="GtskYoYn0J118oQG4hOn-16" value="" style="endArrow=none;html=1;rounded=0;entryX=0;entryY=0.5;entryDx=0;entryDy=0;exitX=1;exitY=0.5;exitDx=0;exitDy=0;" edge="1" parent="1" source="GtskYoYn0J118oQG4hOn-1" target="GtskYoYn0J118oQG4hOn-4">
          <mxGeometry width="50" height="50" relative="1" as="geometry">
            <mxPoint x="1270" y="1130" as="sourcePoint" />
            <mxPoint x="1320" y="1080" as="targetPoint" />
          </mxGeometry>
        </mxCell>
        <mxCell id="GtskYoYn0J118oQG4hOn-17" value="" style="endArrow=none;html=1;rounded=0;entryX=0;entryY=0.5;entryDx=0;entryDy=0;exitX=1;exitY=0.5;exitDx=0;exitDy=0;" edge="1" parent="1" source="GtskYoYn0J118oQG4hOn-4" target="GtskYoYn0J118oQG4hOn-2">
          <mxGeometry width="50" height="50" relative="1" as="geometry">
            <mxPoint x="1447" y="1130" as="sourcePoint" />
            <mxPoint x="1497" y="1080" as="targetPoint" />
          </mxGeometry>
        </mxCell>
        <mxCell id="GtskYoYn0J118oQG4hOn-18" value="" style="endArrow=none;html=1;rounded=0;entryX=0;entryY=0.5;entryDx=0;entryDy=0;exitX=1;exitY=0.5;exitDx=0;exitDy=0;" edge="1" parent="1" source="GtskYoYn0J118oQG4hOn-1" target="GtskYoYn0J118oQG4hOn-5">
          <mxGeometry width="50" height="50" relative="1" as="geometry">
            <mxPoint x="1270" y="1130" as="sourcePoint" />
            <mxPoint x="1320" y="1080" as="targetPoint" />
          </mxGeometry>
        </mxCell>
        <mxCell id="GtskYoYn0J118oQG4hOn-19" value="" style="endArrow=none;html=1;rounded=0;entryX=0;entryY=0.5;entryDx=0;entryDy=0;exitX=1;exitY=0.5;exitDx=0;exitDy=0;" edge="1" parent="1" source="GtskYoYn0J118oQG4hOn-5" target="GtskYoYn0J118oQG4hOn-3">
          <mxGeometry width="50" height="50" relative="1" as="geometry">
            <mxPoint x="1447" y="1130" as="sourcePoint" />
            <mxPoint x="1497" y="1080" as="targetPoint" />
          </mxGeometry>
        </mxCell>
        <mxCell id="GtskYoYn0J118oQG4hOn-20" value="" style="rhombus;whiteSpace=wrap;html=1;" vertex="1" parent="1">
          <mxGeometry x="1982" y="510" width="50" height="50" as="geometry" />
        </mxCell>
        <mxCell id="GtskYoYn0J118oQG4hOn-21" value="Invoice" style="rounded=0;whiteSpace=wrap;html=1;" vertex="1" parent="1">
          <mxGeometry x="1947" y="260" width="120" height="60" as="geometry" />
        </mxCell>
        <mxCell id="GtskYoYn0J118oQG4hOn-22" value="" style="endArrow=none;html=1;rounded=0;entryX=0.5;entryY=1;entryDx=0;entryDy=0;exitX=0.5;exitY=0;exitDx=0;exitDy=0;" edge="1" parent="1" source="GtskYoYn0J118oQG4hOn-3" target="GtskYoYn0J118oQG4hOn-20">
          <mxGeometry width="50" height="50" relative="1" as="geometry">
            <mxPoint x="1727" y="620" as="sourcePoint" />
            <mxPoint x="1777" y="570" as="targetPoint" />
          </mxGeometry>
        </mxCell>
        <mxCell id="GtskYoYn0J118oQG4hOn-23" value="" style="endArrow=none;html=1;rounded=0;entryX=0.5;entryY=1;entryDx=0;entryDy=0;exitX=0.5;exitY=0;exitDx=0;exitDy=0;" edge="1" parent="1" source="GtskYoYn0J118oQG4hOn-20" target="GtskYoYn0J118oQG4hOn-21">
          <mxGeometry width="50" height="50" relative="1" as="geometry">
            <mxPoint x="1727" y="620" as="sourcePoint" />
            <mxPoint x="1777" y="570" as="targetPoint" />
          </mxGeometry>
        </mxCell>
        <mxCell id="GtskYoYn0J118oQG4hOn-24" value="Client" style="rounded=0;whiteSpace=wrap;html=1;" vertex="1" parent="1">
          <mxGeometry x="2457" y="260" width="120" height="60" as="geometry" />
        </mxCell>
        <mxCell id="GtskYoYn0J118oQG4hOn-25" value="" style="rhombus;whiteSpace=wrap;html=1;" vertex="1" parent="1">
          <mxGeometry x="2237" y="265" width="50" height="50" as="geometry" />
        </mxCell>
        <mxCell id="GtskYoYn0J118oQG4hOn-26" value="" style="endArrow=none;html=1;rounded=0;entryX=0;entryY=0.5;entryDx=0;entryDy=0;exitX=1;exitY=0.5;exitDx=0;exitDy=0;" edge="1" parent="1" source="GtskYoYn0J118oQG4hOn-21" target="GtskYoYn0J118oQG4hOn-25">
          <mxGeometry width="50" height="50" relative="1" as="geometry">
            <mxPoint x="2087" y="560" as="sourcePoint" />
            <mxPoint x="2137" y="510" as="targetPoint" />
          </mxGeometry>
        </mxCell>
        <mxCell id="GtskYoYn0J118oQG4hOn-27" value="" style="endArrow=none;html=1;rounded=0;entryX=0;entryY=0.5;entryDx=0;entryDy=0;exitX=1;exitY=0.5;exitDx=0;exitDy=0;" edge="1" parent="1" source="GtskYoYn0J118oQG4hOn-25" target="GtskYoYn0J118oQG4hOn-24">
          <mxGeometry width="50" height="50" relative="1" as="geometry">
            <mxPoint x="2087" y="560" as="sourcePoint" />
            <mxPoint x="2137" y="510" as="targetPoint" />
          </mxGeometry>
        </mxCell>
        <mxCell id="GtskYoYn0J118oQG4hOn-28" value="" style="rhombus;whiteSpace=wrap;html=1;" vertex="1" parent="1">
          <mxGeometry x="2492" y="755" width="50" height="50" as="geometry" />
        </mxCell>
        <mxCell id="GtskYoYn0J118oQG4hOn-29" value="" style="endArrow=none;html=1;rounded=0;entryX=0;entryY=0.5;entryDx=0;entryDy=0;exitX=1;exitY=0.5;exitDx=0;exitDy=0;" edge="1" parent="1" source="GtskYoYn0J118oQG4hOn-3" target="GtskYoYn0J118oQG4hOn-28">
          <mxGeometry width="50" height="50" relative="1" as="geometry">
            <mxPoint x="2087" y="560" as="sourcePoint" />
            <mxPoint x="2137" y="510" as="targetPoint" />
          </mxGeometry>
        </mxCell>
        <mxCell id="GtskYoYn0J118oQG4hOn-30" value="" style="endArrow=none;html=1;rounded=0;entryX=0.5;entryY=1;entryDx=0;entryDy=0;exitX=0.5;exitY=0;exitDx=0;exitDy=0;" edge="1" parent="1" source="GtskYoYn0J118oQG4hOn-28" target="GtskYoYn0J118oQG4hOn-24">
          <mxGeometry width="50" height="50" relative="1" as="geometry">
            <mxPoint x="2087" y="560" as="sourcePoint" />
            <mxPoint x="2137" y="510" as="targetPoint" />
          </mxGeometry>
        </mxCell>
        <mxCell id="GtskYoYn0J118oQG4hOn-31" value="Provider" style="rounded=0;whiteSpace=wrap;html=1;" vertex="1" parent="1">
          <mxGeometry x="429" y="750" width="120" height="60" as="geometry" />
        </mxCell>
        <mxCell id="GtskYoYn0J118oQG4hOn-33" value="" style="rhombus;whiteSpace=wrap;html=1;" vertex="1" parent="1">
          <mxGeometry x="729" y="800" width="50" height="50" as="geometry" />
        </mxCell>
        <mxCell id="GtskYoYn0J118oQG4hOn-34" value="" style="endArrow=none;html=1;rounded=0;entryX=1;entryY=0.5;entryDx=0;entryDy=0;exitX=0;exitY=0.5;exitDx=0;exitDy=0;" edge="1" parent="1" source="GtskYoYn0J118oQG4hOn-1" target="GtskYoYn0J118oQG4hOn-33">
          <mxGeometry width="50" height="50" relative="1" as="geometry">
            <mxPoint x="1310" y="960" as="sourcePoint" />
            <mxPoint x="1540" y="835" as="targetPoint" />
          </mxGeometry>
        </mxCell>
        <mxCell id="GtskYoYn0J118oQG4hOn-35" value="" style="endArrow=none;html=1;rounded=0;entryX=0;entryY=0.5;entryDx=0;entryDy=0;exitX=1;exitY=0.5;exitDx=0;exitDy=0;" edge="1" parent="1" source="GtskYoYn0J118oQG4hOn-31" target="GtskYoYn0J118oQG4hOn-33">
          <mxGeometry width="50" height="50" relative="1" as="geometry">
            <mxPoint x="869" y="1010" as="sourcePoint" />
            <mxPoint x="919" y="960" as="targetPoint" />
          </mxGeometry>
        </mxCell>
        <mxCell id="GtskYoYn0J118oQG4hOn-36" value="" style="rhombus;whiteSpace=wrap;html=1;" vertex="1" parent="1">
          <mxGeometry x="729" y="1090" width="50" height="50" as="geometry" />
        </mxCell>
        <mxCell id="GtskYoYn0J118oQG4hOn-37" value="" style="endArrow=none;html=1;rounded=0;entryX=1;entryY=0.5;entryDx=0;entryDy=0;exitX=0;exitY=0.5;exitDx=0;exitDy=0;" edge="1" parent="1" source="GtskYoYn0J118oQG4hOn-1" target="GtskYoYn0J118oQG4hOn-36">
          <mxGeometry width="50" height="50" relative="1" as="geometry">
            <mxPoint x="1170" y="1095" as="sourcePoint" />
            <mxPoint x="970" y="970" as="targetPoint" />
          </mxGeometry>
        </mxCell>
        <mxCell id="GtskYoYn0J118oQG4hOn-38" value="Buy" style="rounded=0;whiteSpace=wrap;html=1;" vertex="1" parent="1">
          <mxGeometry x="429" y="1120" width="120" height="60" as="geometry" />
        </mxCell>
        <mxCell id="GtskYoYn0J118oQG4hOn-39" value="" style="endArrow=none;html=1;rounded=0;entryX=0;entryY=0.5;entryDx=0;entryDy=0;exitX=1;exitY=0.5;exitDx=0;exitDy=0;" edge="1" parent="1" source="GtskYoYn0J118oQG4hOn-38" target="GtskYoYn0J118oQG4hOn-36">
          <mxGeometry width="50" height="50" relative="1" as="geometry">
            <mxPoint x="559" y="790" as="sourcePoint" />
            <mxPoint x="739" y="835" as="targetPoint" />
          </mxGeometry>
        </mxCell>
        <mxCell id="GtskYoYn0J118oQG4hOn-41" value="transportIncluded" style="ellipse;whiteSpace=wrap;html=1;" vertex="1" parent="1">
          <mxGeometry x="900" y="690" width="120.71" height="65" as="geometry" />
        </mxCell>
        <mxCell id="GtskYoYn0J118oQG4hOn-42" value="Administrator" style="rounded=1;whiteSpace=wrap;html=1;" vertex="1" parent="1">
          <mxGeometry x="1902.5" y="120" width="110" height="50" as="geometry" />
        </mxCell>
        <mxCell id="GtskYoYn0J118oQG4hOn-43" value="Administrative" style="rounded=1;whiteSpace=wrap;html=1;" vertex="1" parent="1">
          <mxGeometry x="1772.5" y="120" width="110" height="50" as="geometry" />
        </mxCell>
        <mxCell id="GtskYoYn0J118oQG4hOn-44" value="" style="triangle;whiteSpace=wrap;html=1;rotation=90;" vertex="1" parent="1">
          <mxGeometry x="1862.5" y="-5" width="60" height="80" as="geometry" />
        </mxCell>
        <mxCell id="GtskYoYn0J118oQG4hOn-45" value="is" style="text;html=1;align=center;verticalAlign=middle;resizable=0;points=[];autosize=1;strokeColor=none;fillColor=none;" vertex="1" parent="1">
          <mxGeometry x="1877.5" y="15" width="30" height="30" as="geometry" />
        </mxCell>
        <mxCell id="GtskYoYn0J118oQG4hOn-46" value="" style="endArrow=none;html=1;rounded=0;exitX=0;exitY=0.5;exitDx=0;exitDy=0;" edge="1" parent="1" source="GtskYoYn0J118oQG4hOn-44">
          <mxGeometry width="50" height="50" relative="1" as="geometry">
            <mxPoint x="1895" y="-40" as="sourcePoint" />
            <mxPoint x="1892.5" y="-70" as="targetPoint" />
          </mxGeometry>
        </mxCell>
        <mxCell id="GtskYoYn0J118oQG4hOn-47" value="1..1" style="text;html=1;align=center;verticalAlign=middle;resizable=0;points=[];autosize=1;strokeColor=none;fillColor=none;" vertex="1" parent="1">
          <mxGeometry x="1902" y="-50" width="40" height="30" as="geometry" />
        </mxCell>
        <mxCell id="GtskYoYn0J118oQG4hOn-48" value="Employee" style="rounded=1;whiteSpace=wrap;html=1;" vertex="1" parent="1">
          <mxGeometry x="1832.5" y="-130" width="120" height="60" as="geometry" />
        </mxCell>
        <mxCell id="GtskYoYn0J118oQG4hOn-49" value="" style="endArrow=none;html=1;rounded=0;exitX=0.5;exitY=0;exitDx=0;exitDy=0;" edge="1" parent="1" source="GtskYoYn0J118oQG4hOn-43">
          <mxGeometry width="50" height="50" relative="1" as="geometry">
            <mxPoint x="1842.5" y="110" as="sourcePoint" />
            <mxPoint x="1892.5" y="60" as="targetPoint" />
          </mxGeometry>
        </mxCell>
        <mxCell id="GtskYoYn0J118oQG4hOn-50" value="" style="endArrow=none;html=1;rounded=0;entryX=0.5;entryY=0;entryDx=0;entryDy=0;" edge="1" parent="1" target="GtskYoYn0J118oQG4hOn-42">
          <mxGeometry width="50" height="50" relative="1" as="geometry">
            <mxPoint x="1893" y="60" as="sourcePoint" />
            <mxPoint x="1942.5" y="10" as="targetPoint" />
          </mxGeometry>
        </mxCell>
        <mxCell id="GtskYoYn0J118oQG4hOn-51" value="name" style="ellipse;whiteSpace=wrap;html=1;" vertex="1" parent="1">
          <mxGeometry x="1722.5" y="-230" width="90" height="50" as="geometry" />
        </mxCell>
        <mxCell id="GtskYoYn0J118oQG4hOn-52" value="lastName" style="ellipse;whiteSpace=wrap;html=1;" vertex="1" parent="1">
          <mxGeometry x="1787.5" y="-280" width="90" height="50" as="geometry" />
        </mxCell>
        <mxCell id="GtskYoYn0J118oQG4hOn-53" value="type" style="ellipse;whiteSpace=wrap;html=1;" vertex="1" parent="1">
          <mxGeometry x="1882.5" y="-280" width="90" height="50" as="geometry" />
        </mxCell>
        <mxCell id="GtskYoYn0J118oQG4hOn-54" value="password" style="ellipse;whiteSpace=wrap;html=1;" vertex="1" parent="1">
          <mxGeometry x="1942" y="-240" width="90" height="50" as="geometry" />
        </mxCell>
        <mxCell id="GtskYoYn0J118oQG4hOn-55" value="" style="endArrow=none;html=1;rounded=0;exitX=0.5;exitY=0;exitDx=0;exitDy=0;" edge="1" parent="1" source="GtskYoYn0J118oQG4hOn-48">
          <mxGeometry width="50" height="50" relative="1" as="geometry">
            <mxPoint x="1762.5" y="-150" as="sourcePoint" />
            <mxPoint x="1812.5" y="-200" as="targetPoint" />
          </mxGeometry>
        </mxCell>
        <mxCell id="GtskYoYn0J118oQG4hOn-56" value="" style="endArrow=none;html=1;rounded=0;exitX=0.5;exitY=0;exitDx=0;exitDy=0;" edge="1" parent="1" source="GtskYoYn0J118oQG4hOn-48">
          <mxGeometry width="50" height="50" relative="1" as="geometry">
            <mxPoint x="1792.5" y="-180" as="sourcePoint" />
            <mxPoint x="1842.5" y="-230" as="targetPoint" />
          </mxGeometry>
        </mxCell>
        <mxCell id="GtskYoYn0J118oQG4hOn-57" value="" style="endArrow=none;html=1;rounded=0;" edge="1" parent="1">
          <mxGeometry width="50" height="50" relative="1" as="geometry">
            <mxPoint x="1892.5" y="-130" as="sourcePoint" />
            <mxPoint x="1922.5" y="-230" as="targetPoint" />
          </mxGeometry>
        </mxCell>
        <mxCell id="GtskYoYn0J118oQG4hOn-58" value="" style="endArrow=none;html=1;rounded=0;exitX=0.5;exitY=0;exitDx=0;exitDy=0;entryX=0;entryY=1;entryDx=0;entryDy=0;" edge="1" parent="1" source="GtskYoYn0J118oQG4hOn-48" target="GtskYoYn0J118oQG4hOn-54">
          <mxGeometry width="50" height="50" relative="1" as="geometry">
            <mxPoint x="1912.5" y="-140" as="sourcePoint" />
            <mxPoint x="1962.5" y="-190" as="targetPoint" />
          </mxGeometry>
        </mxCell>
        <mxCell id="GtskYoYn0J118oQG4hOn-59" value="1..1" style="text;html=1;align=center;verticalAlign=middle;resizable=0;points=[];autosize=1;strokeColor=none;fillColor=none;" vertex="1" parent="1">
          <mxGeometry x="1872.5" y="80" width="40" height="30" as="geometry" />
        </mxCell>
        <mxCell id="GtskYoYn0J118oQG4hOn-60" value="&lt;u&gt;ID&lt;/u&gt;" style="ellipse;whiteSpace=wrap;html=1;" vertex="1" parent="1">
          <mxGeometry x="1711.5" y="-170" width="90" height="50" as="geometry" />
        </mxCell>
        <mxCell id="GtskYoYn0J118oQG4hOn-61" value="" style="endArrow=none;html=1;rounded=0;entryX=1;entryY=0.5;entryDx=0;entryDy=0;exitX=0;exitY=0;exitDx=0;exitDy=0;" edge="1" parent="1" source="GtskYoYn0J118oQG4hOn-48" target="GtskYoYn0J118oQG4hOn-60">
          <mxGeometry width="50" height="50" relative="1" as="geometry">
            <mxPoint x="1831.5" y="-120" as="sourcePoint" />
            <mxPoint x="1881.5" y="-170" as="targetPoint" />
          </mxGeometry>
        </mxCell>
        <mxCell id="GtskYoYn0J118oQG4hOn-63" value="dni" style="ellipse;whiteSpace=wrap;html=1;labelBackgroundColor=none;fontStyle=0;direction=west;" vertex="1" parent="1">
          <mxGeometry x="2785" y="215" width="80" height="50" as="geometry" />
        </mxCell>
        <mxCell id="GtskYoYn0J118oQG4hOn-64" value="email" style="ellipse;whiteSpace=wrap;html=1;labelBackgroundColor=none;fontStyle=0;direction=west;" vertex="1" parent="1">
          <mxGeometry x="2685" y="130" width="80" height="50" as="geometry" />
        </mxCell>
        <mxCell id="GtskYoYn0J118oQG4hOn-65" value="userName" style="ellipse;whiteSpace=wrap;html=1;labelBackgroundColor=none;fontStyle=0;direction=west;" vertex="1" parent="1">
          <mxGeometry x="2755" y="160" width="80" height="50" as="geometry" />
        </mxCell>
        <mxCell id="GtskYoYn0J118oQG4hOn-67" value="lastName" style="ellipse;whiteSpace=wrap;html=1;labelBackgroundColor=none;fontStyle=0;direction=west;" vertex="1" parent="1">
          <mxGeometry x="2815" y="270" width="80" height="50" as="geometry" />
        </mxCell>
        <mxCell id="GtskYoYn0J118oQG4hOn-68" value="name" style="ellipse;whiteSpace=wrap;html=1;labelBackgroundColor=none;fontStyle=0;direction=west;" vertex="1" parent="1">
          <mxGeometry x="2750" y="370" width="80" height="50" as="geometry" />
        </mxCell>
        <mxCell id="GtskYoYn0J118oQG4hOn-69" value="address" style="ellipse;whiteSpace=wrap;html=1;labelBackgroundColor=none;fontStyle=0;direction=west;" vertex="1" parent="1">
          <mxGeometry x="2790" y="320" width="80" height="50" as="geometry" />
        </mxCell>
        <mxCell id="GtskYoYn0J118oQG4hOn-70" value="targetNum" style="ellipse;whiteSpace=wrap;html=1;labelBackgroundColor=none;fontStyle=0;direction=west;" vertex="1" parent="1">
          <mxGeometry x="2630" y="430" width="80" height="50" as="geometry" />
        </mxCell>
        <mxCell id="GtskYoYn0J118oQG4hOn-79" value="" style="endArrow=none;html=1;rounded=0;entryX=1;entryY=0.5;entryDx=0;entryDy=0;fontColor=#000000;labelBackgroundColor=none;fontStyle=0;exitX=0.5;exitY=0;exitDx=0;exitDy=0;" edge="1" parent="1" source="GtskYoYn0J118oQG4hOn-24" target="GtskYoYn0J118oQG4hOn-80">
          <mxGeometry width="50" height="50" relative="1" as="geometry">
            <mxPoint x="2857" y="170" as="sourcePoint" />
            <mxPoint x="2657" y="130" as="targetPoint" />
          </mxGeometry>
        </mxCell>
        <mxCell id="GtskYoYn0J118oQG4hOn-80" value="" style="triangle;whiteSpace=wrap;html=1;direction=east;labelBackgroundColor=none;fontStyle=0;rotation=90;" vertex="1" parent="1">
          <mxGeometry x="2487" y="-11.25" width="60" height="82.5" as="geometry" />
        </mxCell>
        <mxCell id="GtskYoYn0J118oQG4hOn-81" value="" style="endArrow=none;html=1;rounded=0;entryX=0;entryY=0.5;entryDx=0;entryDy=0;fontColor=#000000;labelBackgroundColor=none;fontStyle=0;exitX=0.5;exitY=1;exitDx=0;exitDy=0;" edge="1" parent="1" source="GtskYoYn0J118oQG4hOn-83" target="GtskYoYn0J118oQG4hOn-80">
          <mxGeometry width="50" height="50" relative="1" as="geometry">
            <mxPoint x="2462" y="-60" as="sourcePoint" />
            <mxPoint x="2515" y="3.75" as="targetPoint" />
          </mxGeometry>
        </mxCell>
        <mxCell id="GtskYoYn0J118oQG4hOn-82" value="" style="endArrow=none;html=1;rounded=0;entryX=0;entryY=0.5;entryDx=0;entryDy=0;exitX=0.5;exitY=1;exitDx=0;exitDy=0;fontColor=#000000;labelBackgroundColor=none;fontStyle=0" edge="1" parent="1" source="GtskYoYn0J118oQG4hOn-84" target="GtskYoYn0J118oQG4hOn-80">
          <mxGeometry width="50" height="50" relative="1" as="geometry">
            <mxPoint x="2447" y="-100" as="sourcePoint" />
            <mxPoint x="2515" y="3.75" as="targetPoint" />
          </mxGeometry>
        </mxCell>
        <mxCell id="GtskYoYn0J118oQG4hOn-83" value="Private" style="rounded=1;whiteSpace=wrap;html=1;labelBackgroundColor=none;fontStyle=0" vertex="1" parent="1">
          <mxGeometry x="2372" y="-95" width="120" height="35" as="geometry" />
        </mxCell>
        <mxCell id="GtskYoYn0J118oQG4hOn-84" value="Professional" style="rounded=1;whiteSpace=wrap;html=1;labelBackgroundColor=none;fontStyle=0" vertex="1" parent="1">
          <mxGeometry x="2537" y="-95" width="120" height="35" as="geometry" />
        </mxCell>
        <mxCell id="GtskYoYn0J118oQG4hOn-86" value="LOPD" style="ellipse;whiteSpace=wrap;html=1;labelBackgroundColor=none;fontStyle=0" vertex="1" parent="1">
          <mxGeometry x="2507" y="-180" width="80" height="50" as="geometry" />
        </mxCell>
        <mxCell id="GtskYoYn0J118oQG4hOn-87" value="CIF" style="ellipse;whiteSpace=wrap;html=1;labelBackgroundColor=none;fontStyle=0" vertex="1" parent="1">
          <mxGeometry x="2567" y="-230" width="80" height="50" as="geometry" />
        </mxCell>
        <mxCell id="GtskYoYn0J118oQG4hOn-88" value="managerNIF" style="ellipse;whiteSpace=wrap;html=1;labelBackgroundColor=none;fontStyle=0" vertex="1" parent="1">
          <mxGeometry x="2657" y="-210" width="80" height="50" as="geometry" />
        </mxCell>
        <mxCell id="GtskYoYn0J118oQG4hOn-89" value="ConstitucionWriting" style="ellipse;whiteSpace=wrap;html=1;labelBackgroundColor=none;fontStyle=0" vertex="1" parent="1">
          <mxGeometry x="2677" y="-145" width="113" height="55" as="geometry" />
        </mxCell>
        <mxCell id="GtskYoYn0J118oQG4hOn-91" value="" style="endArrow=none;html=1;rounded=0;entryX=0.5;entryY=0;entryDx=0;entryDy=0;fontColor=#000000;labelBackgroundColor=none;fontStyle=0" edge="1" parent="1" source="GtskYoYn0J118oQG4hOn-86" target="GtskYoYn0J118oQG4hOn-84">
          <mxGeometry width="50" height="50" relative="1" as="geometry">
            <mxPoint x="2874" y="-87" as="sourcePoint" />
            <mxPoint x="3105" y="70" as="targetPoint" />
          </mxGeometry>
        </mxCell>
        <mxCell id="GtskYoYn0J118oQG4hOn-92" value="" style="endArrow=none;html=1;rounded=0;entryX=0.5;entryY=0;entryDx=0;entryDy=0;fontColor=#000000;labelBackgroundColor=none;fontStyle=0" edge="1" parent="1" source="GtskYoYn0J118oQG4hOn-87" target="GtskYoYn0J118oQG4hOn-84">
          <mxGeometry width="50" height="50" relative="1" as="geometry">
            <mxPoint x="2593" y="-130" as="sourcePoint" />
            <mxPoint x="2607" y="-85" as="targetPoint" />
          </mxGeometry>
        </mxCell>
        <mxCell id="GtskYoYn0J118oQG4hOn-93" value="" style="endArrow=none;html=1;rounded=0;entryX=0.5;entryY=0;entryDx=0;entryDy=0;fontColor=#000000;labelBackgroundColor=none;fontStyle=0" edge="1" parent="1" source="GtskYoYn0J118oQG4hOn-88" target="GtskYoYn0J118oQG4hOn-84">
          <mxGeometry width="50" height="50" relative="1" as="geometry">
            <mxPoint x="2603" y="-120" as="sourcePoint" />
            <mxPoint x="2617" y="-75" as="targetPoint" />
          </mxGeometry>
        </mxCell>
        <mxCell id="GtskYoYn0J118oQG4hOn-94" value="" style="endArrow=none;html=1;rounded=0;entryX=0.5;entryY=0;entryDx=0;entryDy=0;exitX=0;exitY=0.5;exitDx=0;exitDy=0;fontColor=#000000;labelBackgroundColor=none;fontStyle=0" edge="1" parent="1" source="GtskYoYn0J118oQG4hOn-89" target="GtskYoYn0J118oQG4hOn-84">
          <mxGeometry width="50" height="50" relative="1" as="geometry">
            <mxPoint x="2613" y="-110" as="sourcePoint" />
            <mxPoint x="2627" y="-65" as="targetPoint" />
          </mxGeometry>
        </mxCell>
        <mxCell id="GtskYoYn0J118oQG4hOn-95" value="&lt;u&gt;id&lt;/u&gt;" style="ellipse;whiteSpace=wrap;html=1;labelBackgroundColor=none;fontStyle=0" vertex="1" parent="1">
          <mxGeometry x="2068" y="880" width="80" height="50" as="geometry" />
        </mxCell>
        <mxCell id="GtskYoYn0J118oQG4hOn-96" value="VehicleNum" style="ellipse;whiteSpace=wrap;html=1;labelBackgroundColor=none;fontStyle=0" vertex="1" parent="1">
          <mxGeometry x="1966.64" y="908" width="80" height="50" as="geometry" />
        </mxCell>
        <mxCell id="GtskYoYn0J118oQG4hOn-97" value="status" style="ellipse;whiteSpace=wrap;html=1;labelBackgroundColor=none;fontStyle=0" vertex="1" parent="1">
          <mxGeometry x="1872.5" y="880" width="80" height="50" as="geometry" />
        </mxCell>
        <mxCell id="Mf4tUPSk8gqxLMfb0aqy-1" value="chassisNumber" style="ellipse;whiteSpace=wrap;html=1;" vertex="1" parent="1">
          <mxGeometry x="950" y="625" width="120.71" height="65" as="geometry" />
        </mxCell>
        <mxCell id="Mf4tUPSk8gqxLMfb0aqy-2" value="isNew" style="ellipse;whiteSpace=wrap;html=1;" vertex="1" parent="1">
          <mxGeometry x="850" y="755" width="120.71" height="65" as="geometry" />
        </mxCell>
        <mxCell id="Mf4tUPSk8gqxLMfb0aqy-3" value="&lt;u&gt;id&lt;/u&gt;" style="ellipse;whiteSpace=wrap;html=1;" vertex="1" parent="1">
          <mxGeometry x="1070.71" y="495" width="120.71" height="65" as="geometry" />
        </mxCell>
        <mxCell id="Mf4tUPSk8gqxLMfb0aqy-4" value="IVA" style="ellipse;whiteSpace=wrap;html=1;" vertex="1" parent="1">
          <mxGeometry x="1010" y="560" width="120.71" height="65" as="geometry" />
        </mxCell>
        <mxCell id="Mf4tUPSk8gqxLMfb0aqy-6" value="km" style="ellipse;whiteSpace=wrap;html=1;" vertex="1" parent="1">
          <mxGeometry x="1309.29" y="490" width="120.71" height="65" as="geometry" />
        </mxCell>
        <mxCell id="Mf4tUPSk8gqxLMfb0aqy-7" value="sellPrice" style="ellipse;whiteSpace=wrap;html=1;" vertex="1" parent="1">
          <mxGeometry x="1359.29" y="555" width="120.71" height="65" as="geometry" />
        </mxCell>
        <mxCell id="Mf4tUPSk8gqxLMfb0aqy-8" value="plate" style="ellipse;whiteSpace=wrap;html=1;" vertex="1" parent="1">
          <mxGeometry x="1410" y="620" width="120.71" height="65" as="geometry" />
        </mxCell>
        <mxCell id="Mf4tUPSk8gqxLMfb0aqy-9" value="observedDamage" style="ellipse;whiteSpace=wrap;html=1;" vertex="1" parent="1">
          <mxGeometry x="1460" y="685" width="120.71" height="65" as="geometry" />
        </mxCell>
        <mxCell id="Mf4tUPSk8gqxLMfb0aqy-10" value="buyPrice" style="ellipse;whiteSpace=wrap;html=1;" vertex="1" parent="1">
          <mxGeometry x="1500" y="755" width="120.71" height="65" as="geometry" />
        </mxCell>
        <mxCell id="Mf4tUPSk8gqxLMfb0aqy-11" value="colour" style="ellipse;whiteSpace=wrap;html=1;" vertex="1" parent="1">
          <mxGeometry x="1250" y="430" width="120.71" height="65" as="geometry" />
        </mxCell>
        <mxCell id="Mf4tUPSk8gqxLMfb0aqy-12" value="vehicleRegistration" style="ellipse;whiteSpace=wrap;html=1;" vertex="1" parent="1">
          <mxGeometry x="1120" y="430" width="120.71" height="65" as="geometry" />
        </mxCell>
        <mxCell id="Mf4tUPSk8gqxLMfb0aqy-13" value="" style="endArrow=none;html=1;rounded=0;entryX=0.5;entryY=0;entryDx=0;entryDy=0;exitX=1;exitY=0.5;exitDx=0;exitDy=0;" edge="1" parent="1" source="Mf4tUPSk8gqxLMfb0aqy-2" target="GtskYoYn0J118oQG4hOn-1">
          <mxGeometry width="50" height="50" relative="1" as="geometry">
            <mxPoint x="1220" y="740" as="sourcePoint" />
            <mxPoint x="1270" y="690" as="targetPoint" />
          </mxGeometry>
        </mxCell>
        <mxCell id="Mf4tUPSk8gqxLMfb0aqy-14" value="" style="endArrow=none;html=1;rounded=0;exitX=1;exitY=1;exitDx=0;exitDy=0;entryX=0.5;entryY=0;entryDx=0;entryDy=0;" edge="1" parent="1" source="GtskYoYn0J118oQG4hOn-41" target="GtskYoYn0J118oQG4hOn-1">
          <mxGeometry width="50" height="50" relative="1" as="geometry">
            <mxPoint x="981" y="798" as="sourcePoint" />
            <mxPoint x="1260" y="780" as="targetPoint" />
          </mxGeometry>
        </mxCell>
        <mxCell id="Mf4tUPSk8gqxLMfb0aqy-15" value="" style="endArrow=none;html=1;rounded=0;entryX=1;entryY=1;entryDx=0;entryDy=0;exitX=0.5;exitY=0;exitDx=0;exitDy=0;" edge="1" parent="1" source="GtskYoYn0J118oQG4hOn-1" target="Mf4tUPSk8gqxLMfb0aqy-1">
          <mxGeometry width="50" height="50" relative="1" as="geometry">
            <mxPoint x="1220" y="740" as="sourcePoint" />
            <mxPoint x="1270" y="690" as="targetPoint" />
          </mxGeometry>
        </mxCell>
        <mxCell id="Mf4tUPSk8gqxLMfb0aqy-16" value="" style="endArrow=none;html=1;rounded=0;entryX=1;entryY=1;entryDx=0;entryDy=0;exitX=0.5;exitY=0;exitDx=0;exitDy=0;" edge="1" parent="1" source="GtskYoYn0J118oQG4hOn-1" target="Mf4tUPSk8gqxLMfb0aqy-4">
          <mxGeometry width="50" height="50" relative="1" as="geometry">
            <mxPoint x="1220" y="740" as="sourcePoint" />
            <mxPoint x="1270" y="690" as="targetPoint" />
          </mxGeometry>
        </mxCell>
        <mxCell id="Mf4tUPSk8gqxLMfb0aqy-17" value="" style="endArrow=none;html=1;rounded=0;entryX=1;entryY=1;entryDx=0;entryDy=0;exitX=0.5;exitY=0;exitDx=0;exitDy=0;" edge="1" parent="1" source="GtskYoYn0J118oQG4hOn-1" target="Mf4tUPSk8gqxLMfb0aqy-3">
          <mxGeometry width="50" height="50" relative="1" as="geometry">
            <mxPoint x="1220" y="740" as="sourcePoint" />
            <mxPoint x="1270" y="690" as="targetPoint" />
          </mxGeometry>
        </mxCell>
        <mxCell id="Mf4tUPSk8gqxLMfb0aqy-18" value="" style="endArrow=none;html=1;rounded=0;entryX=1;entryY=1;entryDx=0;entryDy=0;exitX=0.5;exitY=0;exitDx=0;exitDy=0;" edge="1" parent="1" source="GtskYoYn0J118oQG4hOn-1" target="Mf4tUPSk8gqxLMfb0aqy-12">
          <mxGeometry width="50" height="50" relative="1" as="geometry">
            <mxPoint x="1220" y="740" as="sourcePoint" />
            <mxPoint x="1270" y="690" as="targetPoint" />
          </mxGeometry>
        </mxCell>
        <mxCell id="Mf4tUPSk8gqxLMfb0aqy-19" value="" style="endArrow=none;html=1;rounded=0;entryX=0;entryY=1;entryDx=0;entryDy=0;" edge="1" parent="1" source="GtskYoYn0J118oQG4hOn-1" target="Mf4tUPSk8gqxLMfb0aqy-11">
          <mxGeometry width="50" height="50" relative="1" as="geometry">
            <mxPoint x="1220" y="740" as="sourcePoint" />
            <mxPoint x="1270" y="690" as="targetPoint" />
          </mxGeometry>
        </mxCell>
        <mxCell id="Mf4tUPSk8gqxLMfb0aqy-20" value="" style="endArrow=none;html=1;rounded=0;entryX=0;entryY=1;entryDx=0;entryDy=0;exitX=0.5;exitY=0;exitDx=0;exitDy=0;" edge="1" parent="1" source="GtskYoYn0J118oQG4hOn-1" target="Mf4tUPSk8gqxLMfb0aqy-6">
          <mxGeometry width="50" height="50" relative="1" as="geometry">
            <mxPoint x="1220" y="740" as="sourcePoint" />
            <mxPoint x="1270" y="690" as="targetPoint" />
          </mxGeometry>
        </mxCell>
        <mxCell id="Mf4tUPSk8gqxLMfb0aqy-21" value="" style="endArrow=none;html=1;rounded=0;entryX=0;entryY=1;entryDx=0;entryDy=0;exitX=0.5;exitY=0;exitDx=0;exitDy=0;" edge="1" parent="1" source="GtskYoYn0J118oQG4hOn-1" target="Mf4tUPSk8gqxLMfb0aqy-7">
          <mxGeometry width="50" height="50" relative="1" as="geometry">
            <mxPoint x="1220" y="740" as="sourcePoint" />
            <mxPoint x="1270" y="690" as="targetPoint" />
          </mxGeometry>
        </mxCell>
        <mxCell id="Mf4tUPSk8gqxLMfb0aqy-22" value="" style="endArrow=none;html=1;rounded=0;entryX=0;entryY=1;entryDx=0;entryDy=0;exitX=0.5;exitY=0;exitDx=0;exitDy=0;" edge="1" parent="1" source="GtskYoYn0J118oQG4hOn-1" target="Mf4tUPSk8gqxLMfb0aqy-8">
          <mxGeometry width="50" height="50" relative="1" as="geometry">
            <mxPoint x="1220" y="740" as="sourcePoint" />
            <mxPoint x="1270" y="690" as="targetPoint" />
          </mxGeometry>
        </mxCell>
        <mxCell id="Mf4tUPSk8gqxLMfb0aqy-23" value="" style="endArrow=none;html=1;rounded=0;entryX=0;entryY=1;entryDx=0;entryDy=0;exitX=0.5;exitY=0;exitDx=0;exitDy=0;" edge="1" parent="1" source="GtskYoYn0J118oQG4hOn-1" target="Mf4tUPSk8gqxLMfb0aqy-9">
          <mxGeometry width="50" height="50" relative="1" as="geometry">
            <mxPoint x="1220" y="740" as="sourcePoint" />
            <mxPoint x="1270" y="690" as="targetPoint" />
          </mxGeometry>
        </mxCell>
        <mxCell id="Mf4tUPSk8gqxLMfb0aqy-24" value="" style="endArrow=none;html=1;rounded=0;entryX=0;entryY=1;entryDx=0;entryDy=0;exitX=0.5;exitY=0;exitDx=0;exitDy=0;" edge="1" parent="1" source="GtskYoYn0J118oQG4hOn-1" target="Mf4tUPSk8gqxLMfb0aqy-10">
          <mxGeometry width="50" height="50" relative="1" as="geometry">
            <mxPoint x="1220" y="740" as="sourcePoint" />
            <mxPoint x="1270" y="690" as="targetPoint" />
          </mxGeometry>
        </mxCell>
        <mxCell id="Mf4tUPSk8gqxLMfb0aqy-25" value="&lt;div&gt;(0,N)&lt;/div&gt;" style="text;html=1;strokeColor=none;fillColor=none;align=center;verticalAlign=middle;whiteSpace=wrap;rounded=0;" vertex="1" parent="1">
          <mxGeometry x="550" y="1110" width="60" height="30" as="geometry" />
        </mxCell>
        <mxCell id="Mf4tUPSk8gqxLMfb0aqy-26" value="&lt;div&gt;(1,1)&lt;/div&gt;" style="text;html=1;strokeColor=none;fillColor=none;align=center;verticalAlign=middle;whiteSpace=wrap;rounded=0;" vertex="1" parent="1">
          <mxGeometry x="1121" y="960" width="60" height="30" as="geometry" />
        </mxCell>
        <mxCell id="Mf4tUPSk8gqxLMfb0aqy-27" value="&lt;div&gt;(N,1)&lt;/div&gt;" style="text;html=1;strokeColor=none;fillColor=none;align=center;verticalAlign=middle;whiteSpace=wrap;rounded=0;" vertex="1" parent="1">
          <mxGeometry x="1121" y="910" width="60" height="30" as="geometry" />
        </mxCell>
        <mxCell id="Mf4tUPSk8gqxLMfb0aqy-28" value="(1,1)" style="text;html=1;strokeColor=none;fillColor=none;align=center;verticalAlign=middle;whiteSpace=wrap;rounded=0;" vertex="1" parent="1">
          <mxGeometry x="549" y="790" width="60" height="30" as="geometry" />
        </mxCell>
        <mxCell id="Mf4tUPSk8gqxLMfb0aqy-30" value="(1,1)" style="text;html=1;strokeColor=none;fillColor=none;align=center;verticalAlign=middle;whiteSpace=wrap;rounded=0;" vertex="1" parent="1">
          <mxGeometry x="1299.29" y="960" width="60" height="30" as="geometry" />
        </mxCell>
        <mxCell id="Mf4tUPSk8gqxLMfb0aqy-31" value="&lt;u&gt;id&lt;/u&gt;" style="ellipse;whiteSpace=wrap;html=1;" vertex="1" parent="1">
          <mxGeometry x="1966.64" y="1230" width="120.71" height="65" as="geometry" />
        </mxCell>
        <mxCell id="Mf4tUPSk8gqxLMfb0aqy-32" value="documentType" style="ellipse;whiteSpace=wrap;html=1;" vertex="1" parent="1">
          <mxGeometry x="2096.64" y="1152.5" width="120.71" height="65" as="geometry" />
        </mxCell>
        <mxCell id="Mf4tUPSk8gqxLMfb0aqy-33" value="documentPath" style="ellipse;whiteSpace=wrap;html=1;" vertex="1" parent="1">
          <mxGeometry x="2096.64" y="1230" width="120.71" height="65" as="geometry" />
        </mxCell>
        <mxCell id="Mf4tUPSk8gqxLMfb0aqy-34" value="" style="endArrow=none;html=1;rounded=0;entryX=0.5;entryY=0;entryDx=0;entryDy=0;exitX=0.5;exitY=1;exitDx=0;exitDy=0;" edge="1" parent="1" source="GtskYoYn0J118oQG4hOn-2" target="Mf4tUPSk8gqxLMfb0aqy-31">
          <mxGeometry width="50" height="50" relative="1" as="geometry">
            <mxPoint x="1770" y="1030" as="sourcePoint" />
            <mxPoint x="1820" y="980" as="targetPoint" />
          </mxGeometry>
        </mxCell>
        <mxCell id="Mf4tUPSk8gqxLMfb0aqy-35" value="" style="endArrow=none;html=1;rounded=0;entryX=0;entryY=0;entryDx=0;entryDy=0;exitX=1;exitY=1;exitDx=0;exitDy=0;" edge="1" parent="1" source="GtskYoYn0J118oQG4hOn-2" target="Mf4tUPSk8gqxLMfb0aqy-33">
          <mxGeometry width="50" height="50" relative="1" as="geometry">
            <mxPoint x="1770" y="1030" as="sourcePoint" />
            <mxPoint x="1820" y="980" as="targetPoint" />
          </mxGeometry>
        </mxCell>
        <mxCell id="Mf4tUPSk8gqxLMfb0aqy-36" value="" style="endArrow=none;html=1;rounded=0;entryX=0;entryY=0;entryDx=0;entryDy=0;exitX=1;exitY=0.5;exitDx=0;exitDy=0;" edge="1" parent="1" source="GtskYoYn0J118oQG4hOn-2" target="Mf4tUPSk8gqxLMfb0aqy-32">
          <mxGeometry width="50" height="50" relative="1" as="geometry">
            <mxPoint x="1770" y="1030" as="sourcePoint" />
            <mxPoint x="1820" y="980" as="targetPoint" />
          </mxGeometry>
        </mxCell>
        <mxCell id="Mf4tUPSk8gqxLMfb0aqy-37" value="&lt;u&gt;name&lt;/u&gt;" style="ellipse;whiteSpace=wrap;html=1;" vertex="1" parent="1">
          <mxGeometry x="1781.79" y="1440" width="120.71" height="65" as="geometry" />
        </mxCell>
        <mxCell id="Mf4tUPSk8gqxLMfb0aqy-38" value="&lt;u&gt;id&lt;/u&gt;" style="ellipse;whiteSpace=wrap;html=1;" vertex="1" parent="1">
          <mxGeometry x="1660.71" y="1520" width="120.71" height="65" as="geometry" />
        </mxCell>
        <mxCell id="Mf4tUPSk8gqxLMfb0aqy-39" value="" style="endArrow=none;html=1;rounded=0;entryX=0.75;entryY=1;entryDx=0;entryDy=0;exitX=0.5;exitY=0;exitDx=0;exitDy=0;" edge="1" parent="1" source="Mf4tUPSk8gqxLMfb0aqy-38" target="GtskYoYn0J118oQG4hOn-8">
          <mxGeometry width="50" height="50" relative="1" as="geometry">
            <mxPoint x="1810" y="1170" as="sourcePoint" />
            <mxPoint x="1860" y="1120" as="targetPoint" />
          </mxGeometry>
        </mxCell>
        <mxCell id="Mf4tUPSk8gqxLMfb0aqy-40" value="" style="endArrow=none;html=1;rounded=0;entryX=0;entryY=0.5;entryDx=0;entryDy=0;exitX=1;exitY=0.5;exitDx=0;exitDy=0;" edge="1" parent="1" source="GtskYoYn0J118oQG4hOn-8" target="Mf4tUPSk8gqxLMfb0aqy-37">
          <mxGeometry width="50" height="50" relative="1" as="geometry">
            <mxPoint x="1810" y="1170" as="sourcePoint" />
            <mxPoint x="1860" y="1120" as="targetPoint" />
          </mxGeometry>
        </mxCell>
        <mxCell id="Mf4tUPSk8gqxLMfb0aqy-41" value="(N,1)" style="text;html=1;strokeColor=none;fillColor=none;align=center;verticalAlign=middle;whiteSpace=wrap;rounded=0;" vertex="1" parent="1">
          <mxGeometry x="1560" y="1420" width="60" height="30" as="geometry" />
        </mxCell>
        <mxCell id="Mf4tUPSk8gqxLMfb0aqy-42" value="(N,1)" style="text;html=1;strokeColor=none;fillColor=none;align=center;verticalAlign=middle;whiteSpace=wrap;rounded=0;" vertex="1" parent="1">
          <mxGeometry x="1299.29" y="1450" width="60" height="30" as="geometry" />
        </mxCell>
        <mxCell id="Mf4tUPSk8gqxLMfb0aqy-43" value="comercialDescription" style="ellipse;whiteSpace=wrap;html=1;" vertex="1" parent="1">
          <mxGeometry x="1095.29" y="1320" width="120.71" height="65" as="geometry" />
        </mxCell>
        <mxCell id="Mf4tUPSk8gqxLMfb0aqy-44" value="gearType" style="ellipse;whiteSpace=wrap;html=1;" vertex="1" parent="1">
          <mxGeometry x="1030" y="1385" width="120.71" height="65" as="geometry" />
        </mxCell>
        <mxCell id="Mf4tUPSk8gqxLMfb0aqy-45" value="combusType" style="ellipse;whiteSpace=wrap;html=1;" vertex="1" parent="1">
          <mxGeometry x="1010" y="1465" width="120.71" height="65" as="geometry" />
        </mxCell>
        <mxCell id="Mf4tUPSk8gqxLMfb0aqy-46" value="name" style="ellipse;whiteSpace=wrap;html=1;" vertex="1" parent="1">
          <mxGeometry x="1121" y="1505" width="120.71" height="65" as="geometry" />
        </mxCell>
        <mxCell id="Mf4tUPSk8gqxLMfb0aqy-47" value="&lt;u&gt;id&lt;/u&gt;" style="ellipse;whiteSpace=wrap;html=1;" vertex="1" parent="1">
          <mxGeometry x="1250" y="1505" width="120.71" height="65" as="geometry" />
        </mxCell>
        <mxCell id="Mf4tUPSk8gqxLMfb0aqy-48" value="" style="endArrow=none;html=1;rounded=0;entryX=0.75;entryY=1;entryDx=0;entryDy=0;exitX=0.5;exitY=0;exitDx=0;exitDy=0;" edge="1" parent="1" source="Mf4tUPSk8gqxLMfb0aqy-47" target="GtskYoYn0J118oQG4hOn-7">
          <mxGeometry width="50" height="50" relative="1" as="geometry">
            <mxPoint x="1770" y="1170" as="sourcePoint" />
            <mxPoint x="1820" y="1120" as="targetPoint" />
          </mxGeometry>
        </mxCell>
        <mxCell id="Mf4tUPSk8gqxLMfb0aqy-49" value="" style="endArrow=none;html=1;rounded=0;entryX=0.5;entryY=1;entryDx=0;entryDy=0;exitX=0.5;exitY=0;exitDx=0;exitDy=0;" edge="1" parent="1" source="Mf4tUPSk8gqxLMfb0aqy-46" target="GtskYoYn0J118oQG4hOn-7">
          <mxGeometry width="50" height="50" relative="1" as="geometry">
            <mxPoint x="1770" y="1170" as="sourcePoint" />
            <mxPoint x="1820" y="1120" as="targetPoint" />
          </mxGeometry>
        </mxCell>
        <mxCell id="Mf4tUPSk8gqxLMfb0aqy-50" value="" style="endArrow=none;html=1;rounded=0;entryX=0;entryY=1;entryDx=0;entryDy=0;exitX=1;exitY=0.5;exitDx=0;exitDy=0;" edge="1" parent="1" source="Mf4tUPSk8gqxLMfb0aqy-45" target="GtskYoYn0J118oQG4hOn-7">
          <mxGeometry width="50" height="50" relative="1" as="geometry">
            <mxPoint x="1770" y="1170" as="sourcePoint" />
            <mxPoint x="1820" y="1120" as="targetPoint" />
          </mxGeometry>
        </mxCell>
        <mxCell id="Mf4tUPSk8gqxLMfb0aqy-51" value="" style="endArrow=none;html=1;rounded=0;entryX=1;entryY=1;entryDx=0;entryDy=0;exitX=0;exitY=0.5;exitDx=0;exitDy=0;" edge="1" parent="1" source="GtskYoYn0J118oQG4hOn-7" target="Mf4tUPSk8gqxLMfb0aqy-44">
          <mxGeometry width="50" height="50" relative="1" as="geometry">
            <mxPoint x="1770" y="1170" as="sourcePoint" />
            <mxPoint x="1820" y="1120" as="targetPoint" />
          </mxGeometry>
        </mxCell>
        <mxCell id="Mf4tUPSk8gqxLMfb0aqy-52" value="" style="endArrow=none;html=1;rounded=0;entryX=0.5;entryY=1;entryDx=0;entryDy=0;exitX=0;exitY=0;exitDx=0;exitDy=0;" edge="1" parent="1" source="GtskYoYn0J118oQG4hOn-7" target="Mf4tUPSk8gqxLMfb0aqy-43">
          <mxGeometry width="50" height="50" relative="1" as="geometry">
            <mxPoint x="1770" y="1170" as="sourcePoint" />
            <mxPoint x="1820" y="1120" as="targetPoint" />
          </mxGeometry>
        </mxCell>
        <mxCell id="Mf4tUPSk8gqxLMfb0aqy-53" value="(1,N)" style="text;html=1;strokeColor=none;fillColor=none;align=center;verticalAlign=middle;whiteSpace=wrap;rounded=0;" vertex="1" parent="1">
          <mxGeometry x="1181.71" y="1390" width="60" height="30" as="geometry" />
        </mxCell>
        <mxCell id="Mf4tUPSk8gqxLMfb0aqy-54" value="(1,1)" style="text;html=1;strokeColor=none;fillColor=none;align=center;verticalAlign=middle;whiteSpace=wrap;rounded=0;" vertex="1" parent="1">
          <mxGeometry x="1239.29" y="980" width="60" height="30" as="geometry" />
        </mxCell>
        <mxCell id="Mf4tUPSk8gqxLMfb0aqy-55" value="invoice" style="ellipse;whiteSpace=wrap;html=1;" vertex="1" parent="1">
          <mxGeometry x="370" y="1217.5" width="120.71" height="65" as="geometry" />
        </mxCell>
        <mxCell id="Mf4tUPSk8gqxLMfb0aqy-56" value="&lt;u&gt;id&lt;/u&gt;" style="ellipse;whiteSpace=wrap;html=1;" vertex="1" parent="1">
          <mxGeometry x="280" y="1145" width="120.71" height="65" as="geometry" />
        </mxCell>
        <mxCell id="Mf4tUPSk8gqxLMfb0aqy-57" value="" style="endArrow=none;html=1;rounded=0;entryX=0;entryY=0.5;entryDx=0;entryDy=0;exitX=1;exitY=0.5;exitDx=0;exitDy=0;" edge="1" parent="1" source="Mf4tUPSk8gqxLMfb0aqy-56" target="GtskYoYn0J118oQG4hOn-38">
          <mxGeometry width="50" height="50" relative="1" as="geometry">
            <mxPoint x="630" y="1170" as="sourcePoint" />
            <mxPoint x="680" y="1120" as="targetPoint" />
          </mxGeometry>
        </mxCell>
        <mxCell id="Mf4tUPSk8gqxLMfb0aqy-58" value="" style="endArrow=none;html=1;rounded=0;entryX=0.5;entryY=1;entryDx=0;entryDy=0;exitX=0.5;exitY=0;exitDx=0;exitDy=0;" edge="1" parent="1" source="Mf4tUPSk8gqxLMfb0aqy-55" target="GtskYoYn0J118oQG4hOn-38">
          <mxGeometry width="50" height="50" relative="1" as="geometry">
            <mxPoint x="630" y="1170" as="sourcePoint" />
            <mxPoint x="680" y="1120" as="targetPoint" />
          </mxGeometry>
        </mxCell>
        <mxCell id="Mf4tUPSk8gqxLMfb0aqy-59" value="&lt;u style=&quot;border-color: var(--border-color);&quot;&gt;id&lt;/u&gt;" style="ellipse;whiteSpace=wrap;html=1;" vertex="1" parent="1">
          <mxGeometry x="620" y="698" width="120.71" height="65" as="geometry" />
        </mxCell>
        <mxCell id="Mf4tUPSk8gqxLMfb0aqy-60" value="CIF" style="ellipse;whiteSpace=wrap;html=1;" vertex="1" parent="1">
          <mxGeometry x="279.99999999999994" y="645" width="120.71" height="65" as="geometry" />
        </mxCell>
        <mxCell id="Mf4tUPSk8gqxLMfb0aqy-61" value="constitutionArticle" style="ellipse;whiteSpace=wrap;html=1;" vertex="1" parent="1">
          <mxGeometry x="349.99999999999994" y="583" width="120.71" height="65" as="geometry" />
        </mxCell>
        <mxCell id="Mf4tUPSk8gqxLMfb0aqy-62" value="LOPDdoc" style="ellipse;whiteSpace=wrap;html=1;" vertex="1" parent="1">
          <mxGeometry x="560" y="633" width="120.71" height="65" as="geometry" />
        </mxCell>
        <mxCell id="Mf4tUPSk8gqxLMfb0aqy-63" value="managerNIF" style="ellipse;whiteSpace=wrap;html=1;" vertex="1" parent="1">
          <mxGeometry x="473.71" y="580" width="120.71" height="65" as="geometry" />
        </mxCell>
        <mxCell id="Mf4tUPSk8gqxLMfb0aqy-64" value="completeAdress" style="ellipse;whiteSpace=wrap;html=1;" vertex="1" parent="1">
          <mxGeometry x="220" y="783" width="120.71" height="65" as="geometry" />
        </mxCell>
        <mxCell id="Mf4tUPSk8gqxLMfb0aqy-65" value="DNI" style="ellipse;whiteSpace=wrap;html=1;" vertex="1" parent="1">
          <mxGeometry x="280" y="848" width="120.71" height="65" as="geometry" />
        </mxCell>
        <mxCell id="Mf4tUPSk8gqxLMfb0aqy-66" value="phone" style="ellipse;whiteSpace=wrap;html=1;" vertex="1" parent="1">
          <mxGeometry x="473.71" y="908" width="120.71" height="65" as="geometry" />
        </mxCell>
        <mxCell id="Mf4tUPSk8gqxLMfb0aqy-67" value="email" style="ellipse;whiteSpace=wrap;html=1;" vertex="1" parent="1">
          <mxGeometry x="570" y="855" width="120.71" height="65" as="geometry" />
        </mxCell>
        <mxCell id="Mf4tUPSk8gqxLMfb0aqy-68" value="name" style="ellipse;whiteSpace=wrap;html=1;" vertex="1" parent="1">
          <mxGeometry x="353" y="908" width="120.71" height="65" as="geometry" />
        </mxCell>
        <mxCell id="Mf4tUPSk8gqxLMfb0aqy-69" value="bankTitle" style="ellipse;whiteSpace=wrap;html=1;" vertex="1" parent="1">
          <mxGeometry x="220" y="710" width="120.71" height="65" as="geometry" />
        </mxCell>
        <mxCell id="Mf4tUPSk8gqxLMfb0aqy-70" value="" style="endArrow=none;html=1;rounded=0;entryX=0;entryY=0.5;entryDx=0;entryDy=0;exitX=1;exitY=0;exitDx=0;exitDy=0;" edge="1" parent="1" source="GtskYoYn0J118oQG4hOn-31" target="Mf4tUPSk8gqxLMfb0aqy-59">
          <mxGeometry width="50" height="50" relative="1" as="geometry">
            <mxPoint x="560" y="890" as="sourcePoint" />
            <mxPoint x="610" y="840" as="targetPoint" />
          </mxGeometry>
        </mxCell>
        <mxCell id="Mf4tUPSk8gqxLMfb0aqy-71" value="" style="endArrow=none;html=1;rounded=0;entryX=0;entryY=1;entryDx=0;entryDy=0;exitX=1;exitY=0;exitDx=0;exitDy=0;" edge="1" parent="1" source="GtskYoYn0J118oQG4hOn-31" target="Mf4tUPSk8gqxLMfb0aqy-62">
          <mxGeometry width="50" height="50" relative="1" as="geometry">
            <mxPoint x="560" y="890" as="sourcePoint" />
            <mxPoint x="610" y="840" as="targetPoint" />
          </mxGeometry>
        </mxCell>
        <mxCell id="Mf4tUPSk8gqxLMfb0aqy-72" value="" style="endArrow=none;html=1;rounded=0;entryX=0.5;entryY=1;entryDx=0;entryDy=0;exitX=0.75;exitY=0;exitDx=0;exitDy=0;" edge="1" parent="1" source="GtskYoYn0J118oQG4hOn-31" target="Mf4tUPSk8gqxLMfb0aqy-63">
          <mxGeometry width="50" height="50" relative="1" as="geometry">
            <mxPoint x="560" y="890" as="sourcePoint" />
            <mxPoint x="610" y="840" as="targetPoint" />
          </mxGeometry>
        </mxCell>
        <mxCell id="Mf4tUPSk8gqxLMfb0aqy-73" value="" style="endArrow=none;html=1;rounded=0;entryX=0.5;entryY=1;entryDx=0;entryDy=0;exitX=0.25;exitY=0;exitDx=0;exitDy=0;" edge="1" parent="1" source="GtskYoYn0J118oQG4hOn-31" target="Mf4tUPSk8gqxLMfb0aqy-61">
          <mxGeometry width="50" height="50" relative="1" as="geometry">
            <mxPoint x="560" y="890" as="sourcePoint" />
            <mxPoint x="610" y="840" as="targetPoint" />
          </mxGeometry>
        </mxCell>
        <mxCell id="Mf4tUPSk8gqxLMfb0aqy-74" value="" style="endArrow=none;html=1;rounded=0;entryX=1;entryY=1;entryDx=0;entryDy=0;exitX=0;exitY=0;exitDx=0;exitDy=0;" edge="1" parent="1" source="GtskYoYn0J118oQG4hOn-31" target="Mf4tUPSk8gqxLMfb0aqy-60">
          <mxGeometry width="50" height="50" relative="1" as="geometry">
            <mxPoint x="560" y="890" as="sourcePoint" />
            <mxPoint x="610" y="840" as="targetPoint" />
          </mxGeometry>
        </mxCell>
        <mxCell id="Mf4tUPSk8gqxLMfb0aqy-75" value="" style="endArrow=none;html=1;rounded=0;entryX=1;entryY=0.5;entryDx=0;entryDy=0;exitX=0;exitY=0;exitDx=0;exitDy=0;" edge="1" parent="1" source="GtskYoYn0J118oQG4hOn-31" target="Mf4tUPSk8gqxLMfb0aqy-69">
          <mxGeometry width="50" height="50" relative="1" as="geometry">
            <mxPoint x="560" y="890" as="sourcePoint" />
            <mxPoint x="610" y="840" as="targetPoint" />
          </mxGeometry>
        </mxCell>
        <mxCell id="Mf4tUPSk8gqxLMfb0aqy-76" value="" style="endArrow=none;html=1;rounded=0;entryX=0;entryY=1;entryDx=0;entryDy=0;exitX=1;exitY=0.5;exitDx=0;exitDy=0;" edge="1" parent="1" source="Mf4tUPSk8gqxLMfb0aqy-64" target="GtskYoYn0J118oQG4hOn-31">
          <mxGeometry width="50" height="50" relative="1" as="geometry">
            <mxPoint x="560" y="890" as="sourcePoint" />
            <mxPoint x="610" y="840" as="targetPoint" />
          </mxGeometry>
        </mxCell>
        <mxCell id="Mf4tUPSk8gqxLMfb0aqy-77" value="" style="endArrow=none;html=1;rounded=0;entryX=0;entryY=1;entryDx=0;entryDy=0;exitX=1;exitY=0;exitDx=0;exitDy=0;" edge="1" parent="1" source="Mf4tUPSk8gqxLMfb0aqy-65" target="GtskYoYn0J118oQG4hOn-31">
          <mxGeometry width="50" height="50" relative="1" as="geometry">
            <mxPoint x="560" y="890" as="sourcePoint" />
            <mxPoint x="610" y="840" as="targetPoint" />
          </mxGeometry>
        </mxCell>
        <mxCell id="Mf4tUPSk8gqxLMfb0aqy-78" value="" style="endArrow=none;html=1;rounded=0;entryX=0.25;entryY=1;entryDx=0;entryDy=0;exitX=0.5;exitY=0;exitDx=0;exitDy=0;" edge="1" parent="1" source="Mf4tUPSk8gqxLMfb0aqy-68" target="GtskYoYn0J118oQG4hOn-31">
          <mxGeometry width="50" height="50" relative="1" as="geometry">
            <mxPoint x="560" y="890" as="sourcePoint" />
            <mxPoint x="610" y="840" as="targetPoint" />
          </mxGeometry>
        </mxCell>
        <mxCell id="Mf4tUPSk8gqxLMfb0aqy-79" value="" style="endArrow=none;html=1;rounded=0;entryX=0.75;entryY=1;entryDx=0;entryDy=0;exitX=0.5;exitY=0;exitDx=0;exitDy=0;" edge="1" parent="1" source="Mf4tUPSk8gqxLMfb0aqy-66" target="GtskYoYn0J118oQG4hOn-31">
          <mxGeometry width="50" height="50" relative="1" as="geometry">
            <mxPoint x="560" y="890" as="sourcePoint" />
            <mxPoint x="610" y="840" as="targetPoint" />
          </mxGeometry>
        </mxCell>
        <mxCell id="Mf4tUPSk8gqxLMfb0aqy-80" value="" style="endArrow=none;html=1;rounded=0;entryX=0.75;entryY=1;entryDx=0;entryDy=0;exitX=0;exitY=0;exitDx=0;exitDy=0;" edge="1" parent="1" source="Mf4tUPSk8gqxLMfb0aqy-67" target="GtskYoYn0J118oQG4hOn-31">
          <mxGeometry width="50" height="50" relative="1" as="geometry">
            <mxPoint x="560" y="890" as="sourcePoint" />
            <mxPoint x="610" y="840" as="targetPoint" />
          </mxGeometry>
        </mxCell>
        <mxCell id="Mf4tUPSk8gqxLMfb0aqy-81" value="" style="endArrow=none;html=1;rounded=0;entryX=1;entryY=1;entryDx=0;entryDy=0;exitX=0.75;exitY=1;exitDx=0;exitDy=0;" edge="1" parent="1" source="GtskYoYn0J118oQG4hOn-24" target="GtskYoYn0J118oQG4hOn-70">
          <mxGeometry width="50" height="50" relative="1" as="geometry">
            <mxPoint x="2270" y="310" as="sourcePoint" />
            <mxPoint x="2320" y="260" as="targetPoint" />
          </mxGeometry>
        </mxCell>
        <mxCell id="Mf4tUPSk8gqxLMfb0aqy-82" value="" style="endArrow=none;html=1;rounded=0;entryX=1;entryY=1;entryDx=0;entryDy=0;exitX=1;exitY=1;exitDx=0;exitDy=0;" edge="1" parent="1" source="GtskYoYn0J118oQG4hOn-24" target="GtskYoYn0J118oQG4hOn-68">
          <mxGeometry width="50" height="50" relative="1" as="geometry">
            <mxPoint x="2270" y="310" as="sourcePoint" />
            <mxPoint x="2320" y="260" as="targetPoint" />
          </mxGeometry>
        </mxCell>
        <mxCell id="Mf4tUPSk8gqxLMfb0aqy-83" value="" style="endArrow=none;html=1;rounded=0;entryX=1;entryY=1;entryDx=0;entryDy=0;exitX=1;exitY=1;exitDx=0;exitDy=0;" edge="1" parent="1" source="GtskYoYn0J118oQG4hOn-24" target="GtskYoYn0J118oQG4hOn-69">
          <mxGeometry width="50" height="50" relative="1" as="geometry">
            <mxPoint x="2270" y="310" as="sourcePoint" />
            <mxPoint x="2320" y="260" as="targetPoint" />
          </mxGeometry>
        </mxCell>
        <mxCell id="Mf4tUPSk8gqxLMfb0aqy-85" value="" style="endArrow=none;html=1;rounded=0;entryX=1;entryY=0.5;entryDx=0;entryDy=0;exitX=1;exitY=0.5;exitDx=0;exitDy=0;" edge="1" parent="1" source="GtskYoYn0J118oQG4hOn-24" target="GtskYoYn0J118oQG4hOn-67">
          <mxGeometry width="50" height="50" relative="1" as="geometry">
            <mxPoint x="2270" y="310" as="sourcePoint" />
            <mxPoint x="2320" y="260" as="targetPoint" />
          </mxGeometry>
        </mxCell>
        <mxCell id="Mf4tUPSk8gqxLMfb0aqy-86" value="" style="endArrow=none;html=1;rounded=0;entryX=1;entryY=0.5;entryDx=0;entryDy=0;exitX=1;exitY=0.5;exitDx=0;exitDy=0;" edge="1" parent="1" source="GtskYoYn0J118oQG4hOn-24" target="GtskYoYn0J118oQG4hOn-63">
          <mxGeometry width="50" height="50" relative="1" as="geometry">
            <mxPoint x="2270" y="310" as="sourcePoint" />
            <mxPoint x="2320" y="260" as="targetPoint" />
          </mxGeometry>
        </mxCell>
        <mxCell id="Mf4tUPSk8gqxLMfb0aqy-87" value="" style="endArrow=none;html=1;rounded=0;entryX=1;entryY=0;entryDx=0;entryDy=0;exitX=1;exitY=0;exitDx=0;exitDy=0;" edge="1" parent="1" source="GtskYoYn0J118oQG4hOn-24" target="GtskYoYn0J118oQG4hOn-65">
          <mxGeometry width="50" height="50" relative="1" as="geometry">
            <mxPoint x="2270" y="310" as="sourcePoint" />
            <mxPoint x="2320" y="260" as="targetPoint" />
          </mxGeometry>
        </mxCell>
        <mxCell id="Mf4tUPSk8gqxLMfb0aqy-88" value="" style="endArrow=none;html=1;rounded=0;entryX=1;entryY=0;entryDx=0;entryDy=0;exitX=1;exitY=0;exitDx=0;exitDy=0;" edge="1" parent="1" source="GtskYoYn0J118oQG4hOn-24" target="GtskYoYn0J118oQG4hOn-64">
          <mxGeometry width="50" height="50" relative="1" as="geometry">
            <mxPoint x="2270" y="310" as="sourcePoint" />
            <mxPoint x="2320" y="260" as="targetPoint" />
          </mxGeometry>
        </mxCell>
        <mxCell id="Mf4tUPSk8gqxLMfb0aqy-89" value="" style="endArrow=none;html=1;rounded=0;entryX=0.5;entryY=1;entryDx=0;entryDy=0;exitX=1;exitY=0;exitDx=0;exitDy=0;" edge="1" parent="1" source="GtskYoYn0J118oQG4hOn-97" target="GtskYoYn0J118oQG4hOn-3">
          <mxGeometry width="50" height="50" relative="1" as="geometry">
            <mxPoint x="1890" y="1030" as="sourcePoint" />
            <mxPoint x="1940" y="980" as="targetPoint" />
          </mxGeometry>
        </mxCell>
        <mxCell id="Mf4tUPSk8gqxLMfb0aqy-90" value="" style="endArrow=none;html=1;rounded=0;entryX=0.5;entryY=1;entryDx=0;entryDy=0;exitX=0.5;exitY=0;exitDx=0;exitDy=0;" edge="1" parent="1" source="GtskYoYn0J118oQG4hOn-96" target="GtskYoYn0J118oQG4hOn-3">
          <mxGeometry width="50" height="50" relative="1" as="geometry">
            <mxPoint x="1890" y="1030" as="sourcePoint" />
            <mxPoint x="1940" y="980" as="targetPoint" />
          </mxGeometry>
        </mxCell>
        <mxCell id="Mf4tUPSk8gqxLMfb0aqy-91" value="" style="endArrow=none;html=1;rounded=0;entryX=0.5;entryY=1;entryDx=0;entryDy=0;exitX=0;exitY=0;exitDx=0;exitDy=0;" edge="1" parent="1" source="GtskYoYn0J118oQG4hOn-95" target="GtskYoYn0J118oQG4hOn-3">
          <mxGeometry width="50" height="50" relative="1" as="geometry">
            <mxPoint x="1890" y="1030" as="sourcePoint" />
            <mxPoint x="1940" y="980" as="targetPoint" />
          </mxGeometry>
        </mxCell>
        <mxCell id="lD1Fnz5esE9qslat1j6H-1" value="type" style="ellipse;whiteSpace=wrap;html=1;labelBackgroundColor=none;fontStyle=0;direction=west;" vertex="1" parent="1">
          <mxGeometry x="2557" y="445" width="80" height="50" as="geometry" />
        </mxCell>
        <mxCell id="lD1Fnz5esE9qslat1j6H-2" value="" style="endArrow=none;html=1;rounded=0;entryX=0.643;entryY=1.106;entryDx=0;entryDy=0;exitX=0.75;exitY=1;exitDx=0;exitDy=0;entryPerimeter=0;" edge="1" parent="1" target="lD1Fnz5esE9qslat1j6H-1">
          <mxGeometry width="50" height="50" relative="1" as="geometry">
            <mxPoint x="2530" y="320" as="sourcePoint" />
            <mxPoint x="2600" y="437" as="targetPoint" />
          </mxGeometry>
        </mxCell>
        <mxCell id="lD1Fnz5esE9qslat1j6H-3" value="Is" style="text;html=1;strokeColor=none;fillColor=none;align=center;verticalAlign=middle;whiteSpace=wrap;rounded=0;" vertex="1" parent="1">
          <mxGeometry x="2487" y="10" width="60" height="30" as="geometry" />
        </mxCell>
        <mxCell id="lD1Fnz5esE9qslat1j6H-4" value="1..1" style="text;html=1;align=center;verticalAlign=middle;resizable=0;points=[];autosize=1;strokeColor=none;fillColor=none;" vertex="1" parent="1">
          <mxGeometry x="2497" y="-41.25" width="40" height="30" as="geometry" />
        </mxCell>
        <mxCell id="lD1Fnz5esE9qslat1j6H-5" value="1..1" style="text;html=1;align=center;verticalAlign=middle;resizable=0;points=[];autosize=1;strokeColor=none;fillColor=none;" vertex="1" parent="1">
          <mxGeometry x="2457" y="225" width="40" height="30" as="geometry" />
        </mxCell>
        <mxCell id="lD1Fnz5esE9qslat1j6H-6" value="1..1" style="text;html=1;align=center;verticalAlign=middle;resizable=0;points=[];autosize=1;strokeColor=none;fillColor=none;" vertex="1" parent="1">
          <mxGeometry x="2380" y="260" width="40" height="30" as="geometry" />
        </mxCell>
        <mxCell id="lD1Fnz5esE9qslat1j6H-7" value="1..N" style="text;html=1;align=center;verticalAlign=middle;resizable=0;points=[];autosize=1;strokeColor=none;fillColor=none;" vertex="1" parent="1">
          <mxGeometry x="2103" y="255" width="50" height="30" as="geometry" />
        </mxCell>
        <mxCell id="lD1Fnz5esE9qslat1j6H-8" value="1..1" style="text;html=1;align=center;verticalAlign=middle;resizable=0;points=[];autosize=1;strokeColor=none;fillColor=none;" vertex="1" parent="1">
          <mxGeometry x="2457" y="335" width="40" height="30" as="geometry" />
        </mxCell>
        <mxCell id="lD1Fnz5esE9qslat1j6H-9" value="0..N" style="text;html=1;align=center;verticalAlign=middle;resizable=0;points=[];autosize=1;strokeColor=none;fillColor=none;" vertex="1" parent="1">
          <mxGeometry x="2096.64" y="745" width="50" height="30" as="geometry" />
        </mxCell>
        <mxCell id="lD1Fnz5esE9qslat1j6H-10" value="1..1" style="text;html=1;align=center;verticalAlign=middle;resizable=0;points=[];autosize=1;strokeColor=none;fillColor=none;" vertex="1" parent="1">
          <mxGeometry x="2020" y="345" width="40" height="30" as="geometry" />
        </mxCell>
        <mxCell id="lD1Fnz5esE9qslat1j6H-11" value="1..1" style="text;html=1;align=center;verticalAlign=middle;resizable=0;points=[];autosize=1;strokeColor=none;fillColor=none;" vertex="1" parent="1">
          <mxGeometry x="2020" y="698" width="40" height="30" as="geometry" />
        </mxCell>
        <mxCell id="lD1Fnz5esE9qslat1j6H-12" value="phone" style="ellipse;whiteSpace=wrap;html=1;labelBackgroundColor=none;fontStyle=0;direction=west;" vertex="1" parent="1">
          <mxGeometry x="2605" y="120" width="80" height="50" as="geometry" />
        </mxCell>
        <mxCell id="lD1Fnz5esE9qslat1j6H-13" value="" style="endArrow=none;html=1;rounded=0;exitX=0.75;exitY=0;exitDx=0;exitDy=0;" edge="1" parent="1" source="GtskYoYn0J118oQG4hOn-24" target="lD1Fnz5esE9qslat1j6H-12">
          <mxGeometry width="50" height="50" relative="1" as="geometry">
            <mxPoint x="2527" y="260" as="sourcePoint" />
            <mxPoint x="2647" y="173" as="targetPoint" />
            <Array as="points">
              <mxPoint x="2590" y="210" />
            </Array>
          </mxGeometry>
        </mxCell>
        <mxCell id="lD1Fnz5esE9qslat1j6H-14" value="bussinesName" style="ellipse;whiteSpace=wrap;html=1;labelBackgroundColor=none;fontStyle=0;direction=west;" vertex="1" parent="1">
          <mxGeometry x="2525" y="90" width="80" height="50" as="geometry" />
        </mxCell>
        <mxCell id="lD1Fnz5esE9qslat1j6H-16" value="" style="endArrow=none;html=1;rounded=0;entryX=1;entryY=0;entryDx=0;entryDy=0;exitX=0.646;exitY=-0.049;exitDx=0;exitDy=0;exitPerimeter=0;" edge="1" parent="1" source="GtskYoYn0J118oQG4hOn-24">
          <mxGeometry width="50" height="50" relative="1" as="geometry">
            <mxPoint x="2447" y="227" as="sourcePoint" />
            <mxPoint x="2567" y="140" as="targetPoint" />
          </mxGeometry>
        </mxCell>
        <mxCell id="lD1Fnz5esE9qslat1j6H-17" value="Suscription" style="ellipse;whiteSpace=wrap;html=1;labelBackgroundColor=none;fontStyle=0" vertex="1" parent="1">
          <mxGeometry x="2677" y="-80" width="113" height="55" as="geometry" />
        </mxCell>
        <mxCell id="lD1Fnz5esE9qslat1j6H-18" value="" style="endArrow=none;html=1;rounded=0;entryX=0.5;entryY=0;entryDx=0;entryDy=0;fontColor=#000000;labelBackgroundColor=none;fontStyle=0" edge="1" parent="1" source="lD1Fnz5esE9qslat1j6H-17">
          <mxGeometry width="50" height="50" relative="1" as="geometry">
            <mxPoint x="2737" y="-92" as="sourcePoint" />
            <mxPoint x="2657" y="-70" as="targetPoint" />
          </mxGeometry>
        </mxCell>
        <mxCell id="lD1Fnz5esE9qslat1j6H-19" value="1..1" style="text;html=1;align=center;verticalAlign=middle;resizable=0;points=[];autosize=1;strokeColor=none;fillColor=none;" vertex="1" parent="1">
          <mxGeometry x="1882.5" y="805" width="40" height="30" as="geometry" />
        </mxCell>
        <mxCell id="lD1Fnz5esE9qslat1j6H-20" value="1..N" style="text;html=1;align=center;verticalAlign=middle;resizable=0;points=[];autosize=1;strokeColor=none;fillColor=none;" vertex="1" parent="1">
          <mxGeometry x="1394.6399999999999" y="925.5" width="50" height="30" as="geometry" />
        </mxCell>
        <mxCell id="lD1Fnz5esE9qslat1j6H-21" value="&lt;u&gt;ID&lt;/u&gt;" style="ellipse;whiteSpace=wrap;html=1;labelBackgroundColor=none;fontStyle=0;direction=west;" vertex="1" parent="1">
          <mxGeometry x="2710" y="420" width="80" height="50" as="geometry" />
        </mxCell>
        <mxCell id="lD1Fnz5esE9qslat1j6H-22" value="" style="endArrow=none;html=1;rounded=0;exitX=0.936;exitY=1.033;exitDx=0;exitDy=0;exitPerimeter=0;entryX=1;entryY=1;entryDx=0;entryDy=0;" edge="1" parent="1" source="GtskYoYn0J118oQG4hOn-24" target="lD1Fnz5esE9qslat1j6H-21">
          <mxGeometry width="50" height="50" relative="1" as="geometry">
            <mxPoint x="2547" y="362" as="sourcePoint" />
            <mxPoint x="2731" y="420" as="targetPoint" />
          </mxGeometry>
        </mxCell>
      </root>
    </mxGraphModel>
  </diagram>
</mxfile>
